<?xml version="1.0" standalone="no"?>
<!DOCTYPE svg PUBLIC "-//W3C//DTD SVG 20010904//EN"
 "http://www.w3.org/TR/2001/REC-SVG-20010904/DTD/svg10.dtd">
<svg version="1.0" xmlns="http://www.w3.org/2000/svg"
 width="1280.000000pt" height="832.000000pt" viewBox="0 0 1280.000000 832.000000"
 preserveAspectRatio="xMidYMid meet">
<metadata>
Created by potrace 1.15, written by Peter Selinger 2001-2017
</metadata>
<g transform="translate(0.000000,832.000000) scale(0.100000,-0.100000)"
fill="#000000" stroke="none">
<path d="M4875 7930 c-176 -22 -243 -32 -275 -40 -19 -5 -71 -16 -115 -25
-103 -20 -383 -87 -440 -105 -16 -6 -109 -35 -205 -66 -96 -30 -184 -60 -195
-64 -11 -5 -74 -27 -140 -49 -161 -52 -453 -159 -595 -216 -63 -26 -135 -55
-160 -65 -170 -67 -476 -218 -605 -298 -233 -145 -399 -273 -597 -460 -24 -23
-143 -156 -166 -186 -71 -93 -94 -128 -140 -216 -175 -329 -284 -735 -386
-1440 -26 -176 -76 -541 -81 -589 -3 -25 -8 -57 -10 -71 -6 -34 -12 -68 -36
-222 -31 -198 -38 -239 -88 -508 -39 -207 -147 -673 -196 -840 -9 -30 -20 -68
-25 -85 -30 -108 -80 -263 -100 -310 -5 -11 -18 -47 -30 -80 -50 -143 -89
-232 -181 -414 -88 -175 -94 -190 -62 -160 41 40 181 225 245 324 40 63 59 93
122 198 26 43 176 340 203 402 60 135 151 372 168 435 3 14 12 41 20 60 55
144 198 664 234 855 6 28 19 93 31 145 35 159 80 396 122 642 12 70 23 127 24
125 1 -1 9 -78 18 -172 21 -217 64 -506 96 -640 5 -22 17 -76 26 -120 9 -44
56 -237 104 -430 175 -700 188 -774 188 -1045 -1 -181 -15 -385 -38 -525 -6
-38 -15 -97 -20 -130 -9 -55 -35 -185 -59 -295 -10 -45 -61 -246 -101 -395
-27 -100 -99 -377 -111 -428 -27 -108 88 -183 356 -234 59 -12 154 -16 360
-17 375 -1 459 15 512 94 36 51 29 76 -42 170 -39 51 -72 106 -82 138 -16 51
-16 54 5 98 13 25 48 80 80 122 213 286 341 529 432 822 18 58 36 108 39 113
4 4 25 -55 46 -130 21 -76 44 -147 51 -158 16 -25 74 -223 121 -415 26 -105
36 -168 37 -230 0 -79 -2 -90 -37 -160 -50 -101 -50 -141 2 -190 75 -72 275
-100 711 -100 329 0 492 22 585 80 98 61 88 126 -46 295 -115 145 -138 185
-148 262 -6 37 -17 160 -25 273 -32 416 -45 556 -67 705 -47 324 -88 509 -160
715 -22 63 -46 135 -53 160 -7 25 -16 56 -21 69 l-7 24 258 -7 c347 -9 472 7
694 88 36 13 90 33 120 44 30 11 69 28 85 36 17 9 33 16 36 16 4 0 103 47 220
104 290 141 548 244 649 258 l25 3 7 -215 c3 -118 11 -280 17 -360 6 -80 17
-248 26 -375 8 -126 17 -246 19 -265 3 -19 8 -111 12 -205 5 -132 2 -191 -10
-265 -30 -184 -102 -354 -231 -550 -144 -217 -225 -395 -225 -493 0 -145 164
-269 425 -321 44 -8 94 -18 110 -22 17 -3 132 -8 256 -11 260 -6 317 3 363 58
41 48 35 88 -29 217 -66 132 -84 204 -66 271 7 25 68 161 136 301 123 255 169
376 206 544 25 110 49 301 49 381 0 53 35 183 54 202 10 11 281 -563 352 -746
14 -36 37 -92 51 -124 13 -32 37 -95 53 -140 87 -252 124 -346 185 -472 88
-179 94 -219 42 -321 -19 -38 -38 -90 -42 -115 -20 -132 75 -231 250 -262 92
-16 601 -14 710 2 91 14 181 41 219 66 14 9 34 32 45 51 50 85 18 135 -218
343 -90 79 -157 170 -175 236 -8 28 -19 104 -26 170 -16 169 -25 248 -60 525
-6 47 -15 108 -20 135 -5 28 -16 100 -25 160 -8 61 -17 121 -19 135 -3 14 -16
93 -31 175 -27 162 -58 326 -82 445 -8 41 -21 107 -29 145 -7 39 -31 160 -54
270 -83 401 -171 903 -200 1130 -6 50 -16 117 -21 151 -5 33 -9 94 -9 136 l0
75 162 114 c89 63 167 117 174 121 6 4 39 -1 72 -12 58 -19 144 -39 327 -75
230 -46 426 -120 464 -175 10 -14 42 -68 71 -120 315 -564 709 -903 1020 -876
90 8 220 37 223 50 1 6 -42 46 -95 90 -53 45 -97 84 -97 88 -1 8 5 7 128 -11
186 -28 443 -42 586 -31 341 25 518 60 725 143 84 33 212 100 238 124 7 7 17
13 22 13 15 0 156 116 220 182 132 135 235 317 284 501 25 93 26 107 26 386 0
221 -3 303 -14 343 -55 203 -62 221 -143 383 -42 86 -171 288 -210 330 -10 11
-25 29 -33 41 -67 95 -224 242 -340 318 -112 73 -190 99 -300 100 -86 1 -101
-2 -155 -29 -119 -59 -199 -127 -230 -195 -16 -35 -17 -45 -5 -80 20 -60 31
-66 99 -52 126 26 232 12 341 -45 121 -64 222 -159 315 -299 129 -191 187
-385 186 -614 -2 -231 -70 -400 -219 -543 -68 -64 -174 -134 -252 -165 -140
-55 -362 -75 -486 -43 -334 86 -572 450 -739 1131 -24 96 -55 227 -69 290 -49
211 -126 486 -197 700 -51 155 -95 240 -184 350 -125 157 -163 212 -230 335
-168 310 -361 455 -695 520 -181 35 -455 28 -675 -17 -282 -58 -410 -85 -450
-98 -16 -5 -82 -21 -145 -34 -430 -93 -549 -110 -770 -110 -163 -1 -185 2
-315 32 -211 49 -242 57 -550 144 -172 49 -216 61 -310 84 -55 13 -136 31
-180 40 -44 8 -100 19 -125 24 -47 10 -145 23 -296 40 -101 11 -278 11 -369 0z"/>
</g>
</svg>
